<?xml version="1.0" encoding="UTF-8"?><svg id="Livello_1" xmlns="http://www.w3.org/2000/svg" xmlns:xlink="http://www.w3.org/1999/xlink" viewBox="0 0 768.58 197.19"><defs><style>.cls-1{fill:none;}.cls-2{clip-path:url(#clippath);}.cls-3{fill:#6b453e;}.cls-4,.cls-5{fill:#b27351;}.cls-5{stroke:#b27351;stroke-miterlimit:10;stroke-width:2.22px;}</style><clipPath id="clippath"><polygon class="cls-1" points="199.79 5.64 236.51 45.1 238.73 77.34 240.45 81.08 294.81 197.19 768.58 189.65 751.24 8.09 378.88 0 199.79 5.64"/></clipPath></defs><path class="cls-3" d="m28.16,55.65c0-22.77,0-26.96-.3-31.76-.3-5.09-1.8-7.64-5.09-8.39-1.65-.45-3.6-.6-5.39-.6-1.5,0-2.4-.3-2.4-1.5,0-.9,1.2-1.2,3.6-1.2,5.69,0,15.13.45,19.47.45,3.75,0,12.59-.45,18.28-.45,1.95,0,3.15.3,3.15,1.2,0,1.2-.9,1.5-2.4,1.5s-2.7.15-4.5.45c-4.04.75-5.24,3.3-5.54,8.54-.3,4.79-.3,8.99-.3,31.76v26.37c0,14.53,0,26.36.6,32.81.45,4.05,1.5,6.74,5.99,7.34,2.1.3,5.39.6,7.64.6,1.65,0,2.4.45,2.4,1.2,0,1.05-1.2,1.5-2.85,1.5-9.89,0-19.32-.45-23.37-.45-3.45,0-12.88.45-18.87.45-1.95,0-3-.45-3-1.5,0-.75.6-1.2,2.4-1.2,2.25,0,4.05-.3,5.39-.6,3-.6,3.89-3.15,4.34-7.49.75-6.29.75-18.12.75-32.66v-26.37Z"/><path class="cls-3" d="m104.27,105.08c.3,11.69,2.25,15.58,5.24,16.63,2.55.9,5.39,1.05,7.79,1.05,1.65,0,2.55.3,2.55,1.2,0,1.2-1.35,1.5-3.45,1.5-9.74,0-15.73-.45-18.58-.45-1.35,0-8.39.45-16.18.45-1.95,0-3.3-.15-3.3-1.5,0-.9.9-1.2,2.4-1.2,1.95,0,4.64-.15,6.74-.75,3.89-1.2,4.49-5.54,4.64-18.57l1.35-88.68c0-3,.45-5.09,1.95-5.09,1.65,0,3,1.95,5.54,4.64,1.8,1.95,24.57,26.37,46.44,48.09,10.19,10.19,30.41,31.76,32.96,34.16h.75l-1.5-67.26c-.15-9.14-1.5-11.99-5.09-13.48-2.25-.9-5.84-.9-7.94-.9-1.8,0-2.4-.45-2.4-1.35,0-1.2,1.65-1.35,3.89-1.35,7.79,0,14.98.45,18.13.45,1.65,0,7.34-.45,14.68-.45,1.95,0,3.45.15,3.45,1.35,0,.9-.9,1.35-2.7,1.35-1.5,0-2.7,0-4.49.45-4.19,1.2-5.39,4.34-5.54,12.73l-1.65,94.52c0,3.29-.6,4.64-1.95,4.64-1.65,0-3.45-1.65-5.09-3.3-9.44-8.99-28.61-28.61-44.19-44.04-16.33-16.18-32.96-34.9-35.65-37.75h-.45l1.65,62.91Z"/><path class="cls-4" d="m201.23,149.87c11.19,0,55.86-1.92,55.86,1.79,0,4.34-46.55,5.27-63.95,6.81-24.86,1.86-138.62,11.77-160.37,14.86-12.43,1.55-22.38,4.95-27.35,4.95s-6.22-2.48-4.97-5.57l9.32-18.83c1.87-3.72,4.36-4.02,14.92-4.02h176.54Z"/><g class="cls-2"><path class="cls-4" d="m211.52,65.75c0-28.06,0-33.23-.37-39.14-.37-6.28-1.84-9.23-7.94-10.52-1.48-.37-4.61-.55-7.2-.55-2.03,0-3.14-.37-3.14-1.66s1.29-1.66,4.06-1.66c9.78,0,21.41.55,25.29.55,6.28,0,20.31-.55,26.03-.55,11.63,0,24,1.11,33.97,7.94,5.17,3.51,12.55,12.92,12.55,25.29,0,13.66-5.72,26.22-24.37,41.35,16.43,20.68,29.17,37.11,40.06,48.55,10.34,10.71,17.9,12,20.68,12.56,2.03.37,3.69.55,5.17.55s2.21.55,2.21,1.48c0,1.48-1.29,1.84-3.51,1.84h-17.54c-10.34,0-14.95-.92-19.75-3.51-7.94-4.25-14.95-12.92-25.29-27.14-7.38-10.15-15.88-22.71-18.28-25.48-.92-1.11-2.03-1.29-3.32-1.29l-16.06-.37c-.92,0-1.48.37-1.48,1.48v2.59c0,17.17,0,31.75.92,39.51.55,5.35,1.66,9.41,7.2,10.15,2.77.37,6.83.74,9.04.74,1.48,0,2.22.55,2.22,1.48,0,1.29-1.29,1.84-3.69,1.84-10.71,0-24.37-.55-27.14-.55-3.51,0-15.14.55-22.52.55-2.4,0-3.69-.55-3.69-1.84,0-.92.74-1.48,2.95-1.48,2.77,0,4.98-.37,6.64-.74,3.69-.74,4.62-4.8,5.35-10.15.92-7.75.92-22.34.92-39.32v-32.49Zm21.78,14.58c0,2.03.37,2.77,1.66,3.32,3.88,1.29,9.42,1.85,14.03,1.85,7.38,0,9.78-.74,13.11-3.14,5.54-4.06,10.89-12.55,10.89-27.69,0-26.22-17.35-33.78-28.25-33.78-4.62,0-7.94.18-9.78.74-1.29.37-1.66,1.11-1.66,2.59v56.12Z"/><path class="cls-5" d="m328.57,92.33c0-26.77,18.83-61.47,68.12-61.47,40.99,0,66.46,22.71,66.46,58.7s-26.21,64.25-68.12,64.25c-47.26,0-66.46-33.6-66.46-61.47Zm110.39,2.95c0-34.71-20.86-56.12-47.07-56.12-18.09,0-39.32,9.6-39.32,48.37,0,32.31,18.46,57.78,49.1,57.78,11.45,0,37.29-5.35,37.29-50.03Z"/><path class="cls-4" d="m504.14,33.63c.37-2.58,1.85-4.06,3.14-4.06,1.66,0,2.77.74,4.98,4.98l43.56,87.5,43.57-88.61c1.29-2.58,2.77-3.87,4.25-3.87,1.29,0,3.14,1.66,3.69,4.98l14.77,96.92c1.48,9.78,2.95,14.03,7.94,15.51,4.61,1.29,7.2,1.48,9.23,1.48,1.48,0,2.58.55,2.58,1.48,0,1.29-1.85,1.84-4.25,1.84-4.06,0-27.14-.74-33.6-1.11-3.88-.19-4.8-.92-4.8-1.85,0-.74.74-1.29,1.85-1.66.92-.37,1.29-2.21.74-6.64l-9.05-67.94h-.55l-34.89,70.15c-3.69,7.38-4.61,8.86-6.46,8.86-2.03,0-3.88-3.14-6.46-7.94-3.88-7.2-16.8-31.2-18.65-35.63-1.29-2.95-10.89-22.71-16.25-33.6h-.55l-7.75,61.29c-.37,2.77-.55,4.8-.55,7.38,0,2.95,2.22,4.06,4.98,4.62,2.77.55,4.25.74,5.72.74s2.58.74,2.58,1.48c0,1.48-1.48,1.84-3.88,1.84-6.83,0-14.22-.55-17.17-.55-3.14,0-10.89.55-16.06.55-1.66,0-2.95-.37-2.95-1.84,0-.74.92-1.48,2.58-1.48,1.29,0,2.4,0,4.98-.37,4.43-.55,5.91-6.83,6.65-12l16.06-102.46Z"/><path class="cls-4" d="m668.46,78.49c0-23.82,0-28.25-.18-33.23-.37-5.35-1.85-7.01-7.02-8.49-1.29-.37-4.06-.55-6.46-.55-1.66,0-2.77-.55-2.77-1.66s1.29-1.48,3.69-1.48c8.49,0,18.83.37,23.45.37,5.17,0,41.16.19,44.31,0,2.95-.18,5.54-.74,6.83-.92.92-.19,1.84-.74,2.58-.74.92,0,1.11.74,1.11,1.48,0,1.11-.92,2.95-1.29,10.15-.18,1.66-.55,8.49-.92,10.34-.19.74-.55,2.59-1.85,2.59-1.11,0-1.29-.74-1.29-2.03,0-1.11-.18-3.87-1.11-5.72-1.29-2.77-2.58-4.98-10.71-5.72-2.77-.37-22.15-.74-25.48-.74-.74,0-1.11.55-1.11,1.48v38.77c0,.92.19,1.66,1.11,1.66,3.69,0,24.74,0,28.43-.37,3.88-.37,6.28-.74,7.75-2.4,1.29-1.11,1.85-2.03,2.58-2.03s1.29.74,1.29,1.66-.37,3.51-1.29,11.45c-.37,3.14-.74,9.41-.74,10.52,0,1.29-.19,3.51-1.66,3.51-1.11,0-1.48-.56-1.48-1.29-.18-1.66-.18-3.69-.55-5.72-.92-3.14-2.95-5.54-9.04-6.09-2.95-.37-21.42-.74-25.48-.74-.74,0-.92.74-.92,1.66v12.55c0,5.35-.18,18.65,0,23.26.37,10.71,5.35,13.11,21.97,13.11,4.25,0,11.07-.19,15.32-2.03,4.06-1.85,5.91-5.17,7.01-11.63.37-1.66.74-2.4,1.85-2.4,1.29,0,1.48,2.03,1.48,3.69,0,3.51-1.29,14.22-2.22,17.35-1.11,4.06-2.58,4.06-8.67,4.06-12.19,0-21.97-.19-29.91-.56-7.94-.18-14.03-.37-18.83-.37-1.85,0-5.35.19-9.23.19-3.88.18-7.94.37-11.26.37-2.03,0-3.14-.55-3.14-1.66,0-.74.55-1.66,2.58-1.66,2.4,0,4.25-.19,5.72-.55,3.32-.74,4.24-3.69,4.8-8.31.74-6.65.74-19.02.74-33.41v-27.69Z"/></g></svg>